<?xml version="1.0" encoding="UTF-8"?>
<svg id="Layer_1" data-name="Layer 1" xmlns="http://www.w3.org/2000/svg" viewBox="0 0 89.45 108.39">
  <defs>
    <style>
      .cls-1 {
        fill: #fff !important;
      }

      .cls-2 {
        fill: #2c2b3e  !important;
      }

      .cls-3 {
        fill: #005db7  !important;
      }
    </style>
  </defs>
  <circle class="cls-2" cx="51.22" cy="59.52" r="33.4"/>
  <path class="cls-2" d="M19.67,50.25c-3.79-1.33-8.48-3.56-12.99-7.42-1.65-1.42-6.5-5.57-5.57-7.42,.86-1.72,6.3-.61,9.28,0,3.57,.73,8.8,2.21,14.84,5.57"/>
  <path class="cls-2" d="M73.48,35.4c1.19-2.1,2.63-6.06,5.57-9.28,2.7-2.95,5.77-6.31,7.42-5.57,1.98,.9,1.08,7.32,0,11.13-1.4,4.94-5.55,10.82-7.42,12.99"/>
  <path class="cls-3" d="M66.06,27.23c-2.95,5.01-9.01,6.32-18.56,8.38-8.92,1.93-14.97,3.23-20.41,0-7.1-4.21-7.41-12.7-7.42-13.4-.2-10.18,9.96-16.1,11.13-16.76C40.32,.1,54.8,.79,62.35,8.8c4.3,4.57,7.23,12.45,3.71,18.43Z"/>
  <circle class="cls-1" cx="50.29" cy="51.17" r="12.06"/>
  <circle class="cls-2" cx="53.29" cy="48.17" r="4.64"/>
  <path class="cls-1" d="M35.73,70.97c3.45,6.97,10.59,11.28,18.11,10.94,8.46-.38,15.85-6.58,17.87-15.19"/>
  <path class="cls-2" d="M38.23,91.02v12.32c0,2.02,1.64,3.66,3.66,3.66h9.62c1.15,0,2.29-.5,2.92-1.45,.28-.42,.49-.92,.5-1.49,.05-1.89-2.08-3.39-3.71-3.71-.96-.19-1.35,.1-3.71,0-.83-.04-1.51-.1-1.96-.15v-9.17c0-2.02-1.64-3.66-3.66-3.66h0c-2.02,0-3.66,1.64-3.66,3.66Z"/>
  <path class="cls-2" d="M58.64,91.02v12.32c0,2.02,1.64,3.66,3.66,3.66h9.62c1.15,0,2.29-.5,2.92-1.45,.28-.42,.49-.92,.5-1.49,.05-1.89-2.08-3.39-3.71-3.71-.96-.19-1.35,.1-3.71,0-.83-.04-1.51-.1-1.96-.15v-9.17c0-2.02-1.64-3.66-3.66-3.66h0c-2.02,0-3.66,1.64-3.66,3.66Z"/>
</svg>