<svg width="24" height="24" viewBox="0 0 24 24" fill="none" xmlns="http://www.w3.org/2000/svg">
<path d="M11.9422 4.00276C11.9161 4.00746 11.8904 4.01383 11.8652 4.02184C11.7263 4.05298 11.6025 4.13133 11.5148 4.24354C11.4272 4.35576 11.3812 4.49488 11.3846 4.63722V5.25261H5.84615C5.35652 5.25261 4.88695 5.44711 4.54073 5.79333C4.1945 6.13955 4 6.60913 4 7.09876V15.0988C4 16.1178 4.82708 16.9449 5.84615 16.9449H11.3846V17.1757L8.03815 18.8489C7.89029 18.9203 7.77684 19.0475 7.72277 19.2026C7.6687 19.3576 7.67844 19.5278 7.74985 19.6757C7.82125 19.8236 7.94847 19.937 8.10352 19.9911C8.25857 20.0451 8.42875 20.0354 8.57662 19.964L11.3846 18.5603V18.7911C11.3846 18.9543 11.4495 19.1108 11.5649 19.2262C11.6803 19.3416 11.8368 19.4065 12 19.4065C12.1632 19.4065 12.3197 19.3416 12.4351 19.2262C12.5505 19.1108 12.6154 18.9543 12.6154 18.7911V18.5603L15.4234 19.964C15.5713 20.0354 15.7414 20.0451 15.8965 19.9911C16.0515 19.937 16.1788 19.8236 16.2502 19.6757C16.3216 19.5278 16.3313 19.3576 16.2772 19.2026C16.2232 19.0475 16.1097 18.9203 15.9618 18.8489L12.6154 17.1757V16.9449H18.1538C19.1729 16.9449 20 16.1178 20 15.0988V7.09876C20 6.60913 19.8055 6.13955 19.4593 5.79333C19.1131 5.44711 18.6435 5.25261 18.1538 5.25261H12.6154V4.63722C12.6185 4.54971 12.6029 4.46255 12.5696 4.38155C12.5363 4.30056 12.4862 4.22759 12.4224 4.16754C12.3587 4.10748 12.2829 4.06172 12.2001 4.0333C12.1173 4.00489 12.0293 3.99448 11.9422 4.00276ZM5.23077 7.09876H18.7692V15.0988H5.23077V7.09876ZM16.8462 7.71415C16.7083 7.72897 16.5795 7.7899 16.4806 7.88707L14.4615 9.90676L13.0578 8.50184C12.9906 8.43286 12.9081 8.38063 12.8171 8.34934C12.726 8.31805 12.6288 8.30857 12.5334 8.32168C12.438 8.33479 12.3469 8.37012 12.2677 8.42482C12.1884 8.47951 12.1231 8.55206 12.0769 8.63661L10.2498 11.8292L9.49969 9.9443C9.46327 9.84698 9.40278 9.76046 9.32389 9.69283C9.245 9.62519 9.15026 9.57863 9.04852 9.5575C8.94677 9.53636 8.84133 9.54133 8.74203 9.57195C8.64272 9.60257 8.55279 9.65784 8.48062 9.73261L6.63446 11.5788C6.57628 11.6369 6.53011 11.7059 6.49861 11.7819C6.4671 11.8579 6.45087 11.9394 6.45084 12.0216C6.45081 12.1039 6.46699 12.1853 6.49844 12.2613C6.52989 12.3374 6.57601 12.4064 6.63415 12.4646C6.6923 12.5228 6.76134 12.569 6.83732 12.6005C6.91331 12.632 6.99475 12.6482 7.07701 12.6482C7.15927 12.6483 7.24073 12.6321 7.31674 12.6006C7.39275 12.5692 7.46181 12.5231 7.52 12.4649L8.69292 11.292L9.57785 13.484C9.61961 13.5939 9.692 13.6896 9.78645 13.7597C9.8809 13.8297 9.99344 13.8713 10.1108 13.8794C10.2281 13.8875 10.3453 13.8618 10.4484 13.8053C10.5516 13.7489 10.6365 13.6641 10.6929 13.5609L12.7508 9.96461L14.0197 11.2341C14.0771 11.2935 14.1458 11.3407 14.2218 11.373C14.2979 11.4052 14.3796 11.4218 14.4622 11.4218C14.5447 11.4218 14.6265 11.4052 14.7025 11.373C14.7785 11.3407 14.8472 11.2935 14.9046 11.2341L17.3662 8.77261C17.4634 8.68261 17.5289 8.56365 17.5531 8.4334C17.5773 8.30316 17.5588 8.16858 17.5004 8.04968C17.442 7.93078 17.3468 7.8339 17.2289 7.77345C17.111 7.713 16.9768 7.6922 16.8462 7.71415Z" fill="white"/>
</svg>
