<svg width="16" height="13" viewBox="0 0 16 13" fill="none" xmlns="http://www.w3.org/2000/svg">
<path d="M9.10268 1.32928L9.69732 0.722253C9.94911 0.465222 10.3563 0.465222 10.6054 0.722253L15.8125 6.03514C16.0643 6.29218 16.0643 6.7078 15.8125 6.9621L10.6054 12.2777C10.3536 12.5348 9.94643 12.5348 9.69732 12.2777L9.10268 11.6707C8.84821 11.4109 8.85357 10.9871 9.11339 10.7328L12.3411 7.59374H0.642858C0.286608 7.59374 0 7.30116 0 6.93749V6.06249C0 5.69882 0.286608 5.40624 0.642858 5.40624H12.3411L9.11339 2.26718C8.85089 2.01288 8.84554 1.58905 9.10268 1.32928Z" fill="#061726"/>
</svg>
