<svg width="20" height="20" fill="none" xmlns="http://www.w3.org/2000/svg"><path d="M18.584 4.705a1.919 1.919 0 00-1.5-.745H4.913l-.38-1.49A1.924 1.924 0 002.675 1H1.62a.625.625 0 000 1.248h1.054c.3 0 .56.202.64.504l2.438 9.785c.22.866.98 1.47 1.859 1.47h7.975c.88 0 1.659-.604 1.859-1.47l1.498-6.201c.14-.564.02-1.168-.36-1.631zm-.86 1.349l-1.499 6.201a.662.662 0 01-.64.504H7.612c-.3 0-.56-.202-.64-.504l-1.74-7.027h11.853c.2 0 .4.101.52.262s.18.363.12.564zM8.03 14.812c-1.139 0-2.078.946-2.078 2.094S6.892 19 8.03 19c1.14 0 2.08-.946 2.08-2.094s-.94-2.094-2.08-2.094zm0 2.92a.814.814 0 01-.82-.826c0-.463.36-.825.82-.825.46 0 .82.362.82.825a.84.84 0 01-.82.826zm6.876-2.92c-1.14 0-2.079.946-2.079 2.094S13.768 19 14.908 19c1.139 0 2.078-.946 2.078-2.094-.02-1.148-.94-2.094-2.079-2.094zm0 2.92a.814.814 0 01-.82-.826c0-.463.36-.825.82-.825.46 0 .82.362.82.825a.84.84 0 01-.82.826z" fill="#000"/></svg>