<svg width="9" height="13" viewBox="0 0 9 13" fill="none" xmlns="http://www.w3.org/2000/svg">
<path d="M3.95379 12.7727V0.0454538H4.76913V12.7727H3.95379ZM6.69811 3.86364C6.63845 3.35985 6.3965 2.96875 5.97226 2.69034C5.54801 2.41193 5.02765 2.27273 4.41118 2.27273C3.96042 2.27273 3.56601 2.34564 3.22794 2.49148C2.89318 2.63731 2.63135 2.83783 2.44243 3.09304C2.25682 3.34825 2.16402 3.63826 2.16402 3.96307C2.16402 4.23485 2.22865 4.46851 2.35791 4.66406C2.49049 4.8563 2.65952 5.01705 2.86501 5.14631C3.0705 5.27225 3.28594 5.37666 3.51132 5.45952C3.7367 5.53906 3.94385 5.60369 4.13277 5.65341L5.16686 5.93182C5.43201 6.00142 5.72699 6.09754 6.0518 6.22017C6.37993 6.3428 6.69314 6.51018 6.99143 6.7223C7.29304 6.93111 7.54162 7.19957 7.73717 7.5277C7.93272 7.85582 8.0305 8.25852 8.0305 8.7358C8.0305 9.28598 7.88632 9.78314 7.59797 10.2273C7.31293 10.6714 6.89532 11.0244 6.34513 11.2862C5.79825 11.5481 5.13372 11.679 4.35152 11.679C3.62235 11.679 2.99096 11.5613 2.45734 11.326C1.92704 11.0907 1.50943 10.7625 1.2045 10.3416C0.902891 9.92069 0.7322 9.43182 0.692427 8.875H1.96515C1.9983 9.25947 2.12756 9.57765 2.35294 9.82955C2.58163 10.0781 2.86998 10.2637 3.218 10.3864C3.56932 10.5057 3.94716 10.5653 4.35152 10.5653C4.82216 10.5653 5.24475 10.4891 5.61927 10.3366C5.9938 10.1809 6.29044 9.96544 6.50919 9.69034C6.72794 9.41193 6.83731 9.08712 6.83731 8.71591C6.83731 8.37784 6.74285 8.10275 6.55393 7.89062C6.36501 7.6785 6.11643 7.50616 5.80819 7.37358C5.49996 7.241 5.16686 7.125 4.8089 7.02557L3.55606 6.66761C2.76061 6.43892 2.13087 6.11245 1.66686 5.68821C1.20284 5.26397 0.970836 4.70881 0.970836 4.02273C0.970836 3.45265 1.12496 2.95549 1.43319 2.53125C1.74475 2.10369 2.16236 1.77225 2.68604 1.53693C3.21302 1.2983 3.80133 1.17898 4.45095 1.17898C5.1072 1.17898 5.69053 1.29664 6.20095 1.53196C6.71137 1.76397 7.11572 2.08215 7.41402 2.48651C7.71563 2.89086 7.87472 3.3499 7.89129 3.86364H6.69811Z" fill="#061726"/>
</svg>
