<svg width="24" height="24" viewBox="0 0 24 24" fill="none" xmlns="http://www.w3.org/2000/svg">
<path d="M3.5 12V10L4 9.5H8.5L11.5 7.5V14L10 13.5L9.5 13L9 12.5H7.5H6.5H5L3.5 12Z" fill="#39F993" fill-opacity="0.25"/>
<path d="M20.808 11.3558H18.578C18.4353 11.3558 18.316 11.3081 18.22 11.2128C18.1247 11.1168 18.077 10.9978 18.077 10.8558C18.077 10.7138 18.1247 10.5948 18.22 10.4988C18.316 10.4035 18.435 10.3558 18.577 10.3558H20.807C20.9497 10.3558 21.069 10.4035 21.165 10.4988C21.2603 10.5948 21.308 10.7138 21.308 10.8558C21.308 10.9978 21.2603 11.1168 21.165 11.2128C21.069 11.3081 20.95 11.3558 20.808 11.3558ZM16.888 15.4828C16.978 15.3648 17.089 15.2955 17.221 15.2748C17.353 15.2548 17.478 15.2895 17.596 15.3788L19.369 16.7138C19.487 16.8031 19.5563 16.9138 19.577 17.0458C19.597 17.1778 19.5623 17.3028 19.473 17.4208C19.3837 17.5388 19.273 17.6081 19.141 17.6288C19.0083 17.6488 18.8833 17.6141 18.766 17.5248L16.992 16.1908C16.8747 16.1008 16.8057 15.9898 16.785 15.8578C16.7643 15.7258 16.799 15.6008 16.889 15.4828H16.888ZM19.292 4.92079L17.519 6.25579C17.401 6.34579 17.276 6.38046 17.144 6.35979C17.012 6.33979 16.9013 6.27046 16.812 6.15179C16.722 6.03379 16.6873 5.90879 16.708 5.77679C16.728 5.64479 16.7973 5.53379 16.916 5.44379L18.689 4.10979C18.807 4.01979 18.932 3.98512 19.064 4.00579C19.196 4.02579 19.3067 4.09512 19.396 4.21379C19.486 4.33179 19.5207 4.45679 19.5 4.58879C19.48 4.72079 19.4107 4.83146 19.292 4.92079ZM5.654 13.0098H4.616C4.168 13.0098 3.78667 12.8525 3.472 12.5378C3.15733 12.2231 3 11.8418 3 11.3938V10.3178C3 9.86979 3.15733 9.48846 3.472 9.17379C3.78667 8.85912 4.168 8.70179 4.616 8.70179H8.346L11.091 7.08179C11.3597 6.92112 11.6297 6.91812 11.901 7.07279C12.1723 7.22812 12.308 7.45912 12.308 7.76579V13.9458C12.308 14.2525 12.1723 14.4835 11.901 14.6388C11.6297 14.7941 11.3597 14.7908 11.091 14.6288L8.346 13.0088H6.654V16.3178C6.654 16.4598 6.60633 16.5785 6.511 16.6738C6.415 16.7698 6.296 16.8178 6.154 16.8178C6.012 16.8178 5.893 16.7698 5.797 16.6738C5.70167 16.5785 5.654 16.4598 5.654 16.3178V13.0098ZM11.308 13.5748V8.13679L8.628 9.70179H4.615C4.461 9.70179 4.31967 9.76579 4.191 9.89379C4.063 10.0225 3.999 10.1638 3.999 10.3178V11.3938C3.999 11.5478 4.063 11.6891 4.191 11.8178C4.31967 11.9458 4.461 12.0098 4.615 12.0098H8.626L11.306 13.5748H11.308ZM14.078 13.7448V7.96679C14.412 8.27679 14.6813 8.68412 14.886 9.18879C15.09 9.69279 15.192 10.2481 15.192 10.8548C15.192 11.4615 15.09 12.0168 14.886 12.5208C14.6813 13.0255 14.4117 13.4328 14.077 13.7428L14.078 13.7448Z" fill="#39F993"/>
</svg>
