<svg width="20" height="20" viewBox="0 0 20 20" fill="none" xmlns="http://www.w3.org/2000/svg">
<g clip-path="url(#clip0_190_1722)">
<path d="M13.2 13.2C13.2 12.316 10.6928 11.6 7.6 11.6M13.2 13.2C13.2 14.084 10.6928 14.8 7.6 14.8C4.5072 14.8 2 14.084 2 13.2M13.2 13.2V17.1496C13.2 18.0608 10.6928 18.8 7.6 18.8C4.5072 18.8 2 18.0616 2 17.1496V13.2M13.2 13.2C16.2592 13.2 18.8 12.4104 18.8 11.6V3.6M7.6 11.6C4.5072 11.6 2 12.316 2 13.2M7.6 11.6C4.0656 11.6 1.2 10.8104 1.2 10V6M7.6 4.4C4.0656 4.4 1.2 5.116 1.2 6M1.2 6C1.2 6.884 4.0656 7.6 7.6 7.6C7.6 8.4104 10.2024 9.2 13.2616 9.2C16.32 9.2 18.8 8.4104 18.8 7.6M18.8 3.6C18.8 2.716 16.32 2 13.2616 2C10.2024 2 7.7232 2.716 7.7232 3.6M18.8 3.6C18.8 4.484 16.32 5.2 13.2616 5.2C10.2032 5.2 7.7232 4.484 7.7232 3.6M7.7232 3.6V11.7328" stroke="#061726" stroke-width="2"/>
</g>
<defs>
<clipPath id="clip0_190_1722">
<rect width="19.2" height="19.2" fill="white" transform="translate(0.4 0.400002)"/>
</clipPath>
</defs>
</svg>
