<svg width="17" height="17" viewBox="0 0 17 17" fill="none" xmlns="http://www.w3.org/2000/svg">
<path d="M4.93537 0.5C5.08389 0.5 5.22633 0.559 5.33135 0.66402C5.43637 0.769041 5.49537 0.911479 5.49537 1.06V2.1072H11.509V1.0672C11.509 0.918679 11.568 0.776241 11.673 0.67122C11.778 0.5662 11.9205 0.5072 12.069 0.5072C12.2175 0.5072 12.3599 0.5662 12.465 0.67122C12.57 0.776241 12.629 0.918679 12.629 1.0672V2.1072H14.797C15.2212 2.1072 15.628 2.27566 15.9281 2.57555C16.2281 2.87543 16.3968 3.28219 16.397 3.7064V14.9008C16.3968 15.325 16.2281 15.7318 15.9281 16.0317C15.628 16.3315 15.2212 16.5 14.797 16.5H1.99697C1.57276 16.5 1.16592 16.3315 0.865885 16.0317C0.565849 15.7318 0.397185 15.325 0.396973 14.9008L0.396973 3.7064C0.397185 3.28219 0.565849 2.87543 0.865885 2.57555C1.16592 2.27566 1.57276 2.1072 1.99697 2.1072H4.37537V1.0592C4.37558 0.910817 4.43468 0.768585 4.53968 0.663737C4.64467 0.55889 4.78699 0.5 4.93537 0.5ZM1.51697 6.6936V14.9008C1.51697 14.9638 1.52939 15.0263 1.55351 15.0845C1.57763 15.1427 1.61299 15.1956 1.65756 15.2402C1.70213 15.2848 1.75505 15.3201 1.81328 15.3443C1.87152 15.3684 1.93394 15.3808 1.99697 15.3808H14.797C14.86 15.3808 14.9224 15.3684 14.9807 15.3443C15.0389 15.3201 15.0918 15.2848 15.1364 15.2402C15.181 15.1956 15.2163 15.1427 15.2404 15.0845C15.2646 15.0263 15.277 14.9638 15.277 14.9008V6.7048L1.51697 6.6936ZM5.73057 12.1952V13.528H4.39697V12.1952H5.73057ZM9.06337 12.1952V13.528H7.73057V12.1952H9.06337ZM12.397 12.1952V13.528H11.0634V12.1952H12.397ZM5.73057 9.0136V10.3464H4.39697V9.0136H5.73057ZM9.06337 9.0136V10.3464H7.73057V9.0136H9.06337ZM12.397 9.0136V10.3464H11.0634V9.0136H12.397ZM4.37537 3.2264H1.99697C1.93394 3.2264 1.87152 3.23882 1.81328 3.26294C1.75505 3.28706 1.70213 3.32242 1.65756 3.36699C1.61299 3.41156 1.57763 3.46448 1.55351 3.52271C1.52939 3.58095 1.51697 3.64337 1.51697 3.7064V5.5744L15.277 5.5856V3.7064C15.277 3.64337 15.2646 3.58095 15.2404 3.52271C15.2163 3.46448 15.181 3.41156 15.1364 3.36699C15.0918 3.32242 15.0389 3.28706 14.9807 3.26294C14.9224 3.23882 14.86 3.2264 14.797 3.2264H12.629V3.9696C12.629 4.11812 12.57 4.26056 12.465 4.36558C12.3599 4.4706 12.2175 4.5296 12.069 4.5296C11.9205 4.5296 11.778 4.4706 11.673 4.36558C11.568 4.26056 11.509 4.11812 11.509 3.9696V3.2264H5.49537V3.9624C5.49537 4.11092 5.43637 4.25336 5.33135 4.35838C5.22633 4.4634 5.08389 4.5224 4.93537 4.5224C4.78685 4.5224 4.64441 4.4634 4.53939 4.35838C4.43437 4.25336 4.37537 4.11092 4.37537 3.9624V3.2264Z" fill="black"/>
</svg>
