<svg width="10" height="10" viewBox="0 0 10 10" fill="none" xmlns="http://www.w3.org/2000/svg">
<path d="M2.69456 8.00044C2.81704 8.00046 2.93524 8.04542 3.02677 8.12681C3.11829 8.20819 3.17676 8.32034 3.19109 8.44197L3.19459 8.50047V9.50053C3.19445 9.62797 3.14565 9.75056 3.05816 9.84323C2.97067 9.9359 2.85109 9.99167 2.72387 9.99914C2.59664 10.0066 2.47136 9.96522 2.37363 9.88342C2.2759 9.80162 2.21309 9.68559 2.19803 9.55903L2.19453 9.50053V8.50047C2.19453 8.36786 2.24722 8.24067 2.34099 8.1469C2.43476 8.05312 2.56195 8.00044 2.69456 8.00044ZM6.81629 3.93922C6.90239 3.85313 7.01695 3.80141 7.13847 3.79377C7.25999 3.78612 7.38012 3.82309 7.47633 3.89772L7.52333 3.93922L8.58389 5.00028C9.09147 5.50842 9.38013 6.19496 9.38815 6.91314C9.39617 7.63131 9.12293 8.32414 8.62683 8.84349C8.13072 9.36284 7.45114 9.66751 6.73334 9.69237C6.01555 9.71722 5.31652 9.46029 4.78568 8.9765L4.69467 8.88949L3.63411 7.82893C3.54348 7.73916 3.49059 7.61814 3.48626 7.49064C3.48194 7.36315 3.52651 7.23882 3.61085 7.14311C3.69518 7.04739 3.81292 6.98754 3.93994 6.97578C4.06697 6.96403 4.19368 7.00128 4.29415 7.07989L4.34115 7.1214L5.40171 8.18245C5.72359 8.50448 6.1583 8.68839 6.61356 8.69514C7.06883 8.70188 7.50879 8.53094 7.84008 8.21859C8.17136 7.90625 8.36788 7.47709 8.3879 7.02222C8.40793 6.56735 8.2499 6.12258 7.94735 5.78232L7.87685 5.70732L6.81629 4.64676C6.7698 4.60032 6.73292 4.54517 6.70775 4.48447C6.68259 4.42377 6.66964 4.3587 6.66964 4.29299C6.66964 4.22728 6.68259 4.16221 6.70775 4.10151C6.73292 4.0408 6.7698 3.98566 6.81629 3.93922ZM1.19448 7.00039C1.32193 7.00053 1.44451 7.04933 1.53718 7.13682C1.62986 7.22431 1.68562 7.34388 1.69309 7.47111C1.70056 7.59834 1.65917 7.72362 1.57737 7.82135C1.49557 7.91908 1.37954 7.98189 1.25298 7.99694L1.19448 8.00044H0.694451C0.567004 8.0003 0.444421 7.9515 0.351748 7.86401C0.259075 7.77652 0.203306 7.65695 0.195837 7.52972C0.188369 7.40249 0.229763 7.27721 0.311562 7.17948C0.393362 7.08175 0.509393 7.01894 0.635948 7.00389L0.694451 7.00039H1.19448ZM3.28009 3.5857C3.3662 3.49961 3.48075 3.44789 3.60227 3.44025C3.72379 3.43261 3.84392 3.46957 3.94013 3.5442L3.98763 3.5857L6.10875 5.70732C6.19843 5.7973 6.2505 5.91805 6.25437 6.04503C6.25825 6.17201 6.21365 6.29571 6.12963 6.39099C6.04561 6.48628 5.92846 6.54602 5.802 6.55806C5.67553 6.57011 5.54922 6.53357 5.44871 6.45586L5.40171 6.41436L3.28009 4.29324C3.2336 4.2468 3.19672 4.19165 3.17156 4.13095C3.14639 4.07025 3.13344 4.00518 3.13344 3.93947C3.13344 3.87376 3.14639 3.80869 3.17156 3.74799C3.19672 3.68729 3.2336 3.63214 3.28009 3.5857ZM0.804957 1.11056C1.30538 0.61015 1.97946 0.321912 2.68697 0.3058C3.39449 0.289688 4.08098 0.546943 4.60367 1.02406L4.69467 1.11106L5.75523 2.17112C5.84586 2.2609 5.89876 2.38192 5.90308 2.50941C5.90741 2.63691 5.86284 2.76124 5.7785 2.85695C5.69416 2.95266 5.57643 3.01252 5.4494 3.02427C5.32238 3.03602 5.19566 2.99878 5.09519 2.92016L5.04819 2.87866L3.98763 1.8181C3.66575 1.49607 3.23104 1.31217 2.77578 1.30542C2.32052 1.29867 1.88055 1.46961 1.54927 1.78196C1.21798 2.09431 1.02147 2.52347 1.00144 2.97834C0.981413 3.43321 1.13944 3.87798 1.44199 4.21823L1.5125 4.29324L2.57306 5.3533C2.66369 5.44307 2.71658 5.56409 2.7209 5.69159C2.72523 5.81908 2.68066 5.94341 2.59632 6.03912C2.51198 6.13484 2.39425 6.19469 2.26723 6.20645C2.1402 6.2182 2.01348 6.18095 1.91302 6.10234L1.86602 6.06084L0.805457 5.00028C0.28973 4.48453 0 3.78503 0 3.05567C0 2.3263 0.28973 1.62681 0.805457 1.11106L0.804957 1.11056ZM8.69489 2.00011C8.82751 2.00011 8.95469 2.05279 9.04847 2.14657C9.14224 2.24034 9.19492 2.36752 9.19492 2.50014C9.19492 2.63275 9.14224 2.75994 9.04847 2.85371C8.95469 2.94748 8.82751 3.00017 8.69489 3.00017H8.19487C8.06225 3.00017 7.93507 2.94748 7.84129 2.85371C7.74752 2.75994 7.69484 2.63275 7.69484 2.50014C7.69484 2.36752 7.74752 2.24034 7.84129 2.14657C7.93507 2.05279 8.06225 2.00011 8.19487 2.00011H8.69489ZM6.69478 0C6.81726 1.61562e-05 6.93546 0.0449806 7.02699 0.126365C7.11851 0.207749 7.17698 0.319892 7.19131 0.441524L7.19481 0.500028V1.50008C7.19467 1.62753 7.14587 1.75011 7.05838 1.84279C6.97089 1.93546 6.85132 1.99123 6.72409 1.9987C6.59686 2.00617 6.47158 1.96477 6.37385 1.88297C6.27612 1.80117 6.21331 1.68514 6.19826 1.55859L6.19476 1.50008V0.500028C6.19476 0.367412 6.24744 0.240228 6.34121 0.146455C6.43498 0.0526813 6.56217 0 6.69478 0Z" fill="#F93939"/>
</svg>
