<svg width="74" height="50" viewBox="0 0 74 50" fill="none" xmlns="http://www.w3.org/2000/svg">
<g clip-path="url(#clip0_299_5849)">
<path d="M56.6697 15.7663H57.1697V15.7362C66.2078 16.0028 73.5 23.4735 73.5 32.5956C73.5 41.8854 65.9373 49.4625 56.6697 49.4625C47.402 49.4625 39.8394 41.8854 39.8394 32.5956C39.8394 15.0336 53.9443 0.734695 71.4038 0.466334V2.47287C67.7893 2.6113 64.0762 4.23044 60.8781 6.53849C57.5293 8.95525 54.6929 12.1645 53.0797 15.3399L52.6211 16.2428L53.6167 16.058C54.6016 15.8752 55.6189 15.7663 56.6697 15.7663Z" stroke="#39F993"/>
<path d="M13.7404 15.3399L13.2817 16.2428L14.2774 16.058C15.2622 15.8752 16.2795 15.7663 17.3303 15.7663C26.5979 15.7663 34.1606 23.3434 34.1606 32.6332C34.1606 41.9229 26.5979 49.5 17.3303 49.5C8.06267 49.5 0.5 41.9229 0.5 32.6332C0.5 15.0717 14.6044 0.772197 32.0645 0.467387V2.47287C28.45 2.6113 24.7368 4.23044 21.5387 6.53849C18.1899 8.95525 15.3536 12.1645 13.7404 15.3399Z" stroke="#39F993"/>
</g>
<defs>
<clipPath id="clip0_299_5849">
<rect width="74" height="50" fill="white"/>
</clipPath>
</defs>
</svg>
