<svg width="27" height="27" viewBox="0 0 27 27" fill="none" xmlns="http://www.w3.org/2000/svg">
<path d="M26.4121 16.1298C26.2801 15.9975 26.1147 15.9037 25.9335 15.8584C25.7523 15.8131 25.5622 15.818 25.3836 15.8726C23.4225 16.4656 21.3372 16.5153 19.3501 16.0165C17.363 15.5176 15.5484 14.4889 14.0997 13.0399C12.651 11.5909 11.6225 9.77592 11.1237 7.78838C10.625 5.80083 10.6747 3.71519 11.2675 1.75367C11.3226 1.57494 11.3278 1.38458 11.2828 1.20307C11.2377 1.02157 11.1441 0.855781 11.0119 0.723541C10.8796 0.591301 10.7139 0.497612 10.5324 0.45255C10.351 0.407488 10.1606 0.412758 9.98194 0.467793C7.27062 1.29853 4.89032 2.96342 3.17977 5.22554C1.68385 7.21204 0.771372 9.5764 0.544861 12.053C0.318349 14.5296 0.786774 17.0203 1.89751 19.2453C3.00824 21.4703 4.71728 23.3415 6.83262 24.6485C8.94795 25.9556 11.3858 26.6467 13.8722 26.6444C16.773 26.6533 19.5966 25.7101 21.9098 23.9595C24.1715 22.2486 25.836 19.8678 26.6666 17.1559C26.721 16.9778 26.726 16.7883 26.6812 16.6076C26.6364 16.4269 26.5434 16.2618 26.4121 16.1298ZM20.6731 22.3161C18.4947 23.9573 15.7969 24.7561 13.0763 24.5655C10.3558 24.375 7.79563 23.2079 5.86713 21.2792C3.93863 19.3505 2.77161 16.7899 2.58089 14.0688C2.39018 11.3477 3.18861 8.64927 4.82921 6.47027C5.51007 5.57094 6.31794 4.7801 7.22471 4.12103C7.88297 3.64258 8.73024 4.22789 8.72975 5.04166C8.7335 8.58728 10.1434 11.9866 12.65 14.4938C15.1566 17.0009 18.5552 18.411 22.1001 18.4148C22.9152 18.4145 23.5015 19.2633 23.022 19.9225C22.3628 20.8286 21.5721 21.6359 20.6731 22.3161Z" fill="#B8C6D4"/>
</svg>
