<svg width="24" height="24" viewBox="0 0 24 24" fill="none" xmlns="http://www.w3.org/2000/svg">
<path d="M17.5 12H13.5C13.3674 12 13.2402 12.0527 13.1464 12.1464C13.0527 12.2402 13 12.3674 13 12.5V18.5C13 18.6326 13.0527 18.7598 13.1464 18.8536C13.2402 18.9473 13.3674 19 13.5 19H17.5C17.6326 19 17.7598 18.9473 17.8536 18.8536C17.9473 18.7598 18 18.6326 18 18.5V12.5C18 12.3674 17.9473 12.2402 17.8536 12.1464C17.7598 12.0527 17.6326 12 17.5 12ZM17.5 6H13.5C13.3674 6 13.2402 6.05268 13.1464 6.14645C13.0527 6.24021 13 6.36739 13 6.5V8.51C13 8.64261 13.0527 8.76979 13.1464 8.86355C13.2402 8.95732 13.3674 9.01 13.5 9.01H17.5C17.6326 9.01 17.7598 8.95732 17.8536 8.86355C17.9473 8.76979 18 8.64261 18 8.51V6.5C18 6.36739 17.9473 6.24021 17.8536 6.14645C17.7598 6.05268 17.6326 6 17.5 6ZM9.5 6H5.5C5.36739 6 5.24021 6.05268 5.14645 6.14645C5.05268 6.24021 5 6.36739 5 6.5V12.5C5 12.6326 5.05268 12.7598 5.14645 12.8536C5.24021 12.9473 5.36739 13 5.5 13H9.5C9.63261 13 9.75979 12.9473 9.85355 12.8536C9.94732 12.7598 10 12.6326 10 12.5V6.5C10 6.36739 9.94732 6.24021 9.85355 6.14645C9.75979 6.05268 9.63261 6 9.5 6ZM9.5 15.99H5.5C5.36739 15.99 5.24021 16.0427 5.14645 16.1364C5.05268 16.2302 5 16.3574 5 16.49V18.5C5 18.6326 5.05268 18.7598 5.14645 18.8536C5.24021 18.9473 5.36739 19 5.5 19H9.5C9.63261 19 9.75979 18.9473 9.85355 18.8536C9.94732 18.7598 10 18.6326 10 18.5V16.49C10 16.3574 9.94732 16.2302 9.85355 16.1364C9.75979 16.0427 9.63261 15.99 9.5 15.99Z" stroke="white" stroke-linecap="round" stroke-linejoin="round"/>
</svg>
