<svg width="33" height="33" viewBox="0 0 33 33" fill="none" xmlns="http://www.w3.org/2000/svg">
<path d="M15.4408 4.51478V1.237C15.4408 0.947228 15.5559 0.669323 15.7608 0.464422C15.9657 0.259521 16.2436 0.144409 16.5334 0.144409C16.8232 0.144409 17.1011 0.259521 17.306 0.464422C17.5109 0.669323 17.626 0.947228 17.626 1.237V4.51478C17.626 4.80455 17.5109 5.08246 17.306 5.28736C17.1011 5.49226 16.8232 5.60737 16.5334 5.60737C16.2436 5.60737 15.9657 5.49226 15.7608 5.28736C15.5559 5.08246 15.4408 4.80455 15.4408 4.51478ZM25.2742 16.5333C25.2742 18.2621 24.7615 19.952 23.8011 21.3894C22.8406 22.8268 21.4755 23.9471 19.8784 24.6087C18.2812 25.2703 16.5237 25.4434 14.8282 25.1061C13.1326 24.7688 11.5752 23.9363 10.3528 22.7139C9.13037 21.4915 8.29789 19.9341 7.96063 18.2385C7.62337 16.543 7.79646 14.7855 8.45803 13.1884C9.11959 11.5912 10.2399 10.2261 11.6773 9.26564C13.1147 8.30519 14.8047 7.79256 16.5334 7.79256C18.8508 7.79509 21.0726 8.7168 22.7113 10.3555C24.3499 11.9941 25.2716 14.2159 25.2742 16.5333ZM23.089 16.5333C23.089 15.2367 22.7045 13.9693 21.9842 12.8912C21.2638 11.8132 20.24 10.9729 19.0421 10.4768C17.8443 9.98058 16.5261 9.85076 15.2545 10.1037C13.9828 10.3567 12.8148 10.981 11.8979 11.8978C10.9811 12.8146 10.3568 13.9827 10.1038 15.2544C9.85088 16.526 9.9807 17.8441 10.4769 19.042C10.9731 20.2399 11.8133 21.2637 12.8913 21.984C13.9694 22.7044 15.2369 23.0889 16.5334 23.0889C18.2715 23.087 19.9379 22.3958 21.1669 21.1668C22.3959 19.9378 23.0872 18.2714 23.089 16.5333ZM7.01967 8.56557C7.22469 8.77058 7.50274 8.88576 7.79268 8.88576C8.08261 8.88576 8.36067 8.77058 8.56569 8.56557C8.7707 8.36055 8.88588 8.08249 8.88588 7.79256C8.88588 7.50262 8.7707 7.22456 8.56569 7.01955L6.3805 4.83436C6.17549 4.62935 5.89743 4.51417 5.60749 4.51417C5.31756 4.51417 5.0395 4.62935 4.83449 4.83436C4.62947 5.03938 4.51429 5.31744 4.51429 5.60737C4.51429 5.89731 4.62947 6.17537 4.83449 6.38038L7.01967 8.56557ZM7.01967 24.501L4.83449 26.6862C4.62947 26.8912 4.51429 27.1693 4.51429 27.4592C4.51429 27.7492 4.62947 28.0272 4.83449 28.2322C5.0395 28.4372 5.31756 28.5524 5.60749 28.5524C5.89743 28.5524 6.17549 28.4372 6.3805 28.2322L8.56569 26.047C8.6672 25.9455 8.74773 25.825 8.80266 25.6924C8.8576 25.5598 8.88588 25.4176 8.88588 25.274C8.88588 25.1305 8.8576 24.9883 8.80266 24.8557C8.74773 24.7231 8.6672 24.6025 8.56569 24.501C8.46418 24.3995 8.34366 24.319 8.21103 24.2641C8.0784 24.2091 7.93624 24.1808 7.79268 24.1808C7.64912 24.1808 7.50696 24.2091 7.37433 24.2641C7.2417 24.319 7.12118 24.3995 7.01967 24.501ZM25.2742 8.88515C25.4177 8.88526 25.5598 8.8571 25.6925 8.80226C25.8251 8.74743 25.9456 8.667 26.0472 8.56557L28.2324 6.38038C28.4374 6.17537 28.5525 5.89731 28.5525 5.60737C28.5525 5.31744 28.4374 5.03938 28.2324 4.83436C28.0273 4.62935 27.7493 4.51417 27.4593 4.51417C27.1694 4.51417 26.8914 4.62935 26.6863 4.83436L24.5012 7.01955C24.3482 7.17235 24.244 7.36711 24.2017 7.57917C24.1595 7.79122 24.1812 8.01104 24.2639 8.21079C24.3467 8.41054 24.4869 8.58124 24.6667 8.70129C24.8465 8.82133 25.0579 8.88532 25.2742 8.88515ZM26.0472 24.501C25.8422 24.296 25.5641 24.1808 25.2742 24.1808C24.9842 24.1808 24.7062 24.296 24.5012 24.501C24.2961 24.706 24.181 24.9841 24.181 25.274C24.181 25.564 24.2961 25.842 24.5012 26.047L26.6863 28.2322C26.7878 28.3337 26.9084 28.4143 27.041 28.4692C27.1736 28.5241 27.3158 28.5524 27.4593 28.5524C27.6029 28.5524 27.7451 28.5241 27.8777 28.4692C28.0103 28.4143 28.1308 28.3337 28.2324 28.2322C28.3339 28.1307 28.4144 28.0102 28.4693 27.8776C28.5243 27.7449 28.5525 27.6028 28.5525 27.4592C28.5525 27.3157 28.5243 27.1735 28.4693 27.0409C28.4144 26.9082 28.3339 26.7877 28.2324 26.6862L26.0472 24.501ZM5.60749 16.5333C5.60749 16.2435 5.49238 15.9656 5.28748 15.7607C5.08258 15.5558 4.80468 15.4407 4.5149 15.4407H1.23712C0.94735 15.4407 0.669445 15.5558 0.464544 15.7607C0.259643 15.9656 0.144531 16.2435 0.144531 16.5333C0.144531 16.8231 0.259643 17.101 0.464544 17.3059C0.669445 17.5108 0.94735 17.6259 1.23712 17.6259H4.5149C4.80468 17.6259 5.08258 17.5108 5.28748 17.3059C5.49238 17.101 5.60749 16.8231 5.60749 16.5333ZM16.5334 27.4592C16.2436 27.4592 15.9657 27.5743 15.7608 27.7792C15.5559 27.9841 15.4408 28.262 15.4408 28.5518V31.8296C15.4408 32.1194 15.5559 32.3973 15.7608 32.6022C15.9657 32.8071 16.2436 32.9222 16.5334 32.9222C16.8232 32.9222 17.1011 32.8071 17.306 32.6022C17.5109 32.3973 17.626 32.1194 17.626 31.8296V28.5518C17.626 28.262 17.5109 27.9841 17.306 27.7792C17.1011 27.5743 16.8232 27.4592 16.5334 27.4592ZM31.8297 15.4407H28.5519C28.2622 15.4407 27.9843 15.5558 27.7794 15.7607C27.5745 15.9656 27.4593 16.2435 27.4593 16.5333C27.4593 16.8231 27.5745 17.101 27.7794 17.3059C27.9843 17.5108 28.2622 17.6259 28.5519 17.6259H31.8297C32.1195 17.6259 32.3974 17.5108 32.6023 17.3059C32.8072 17.101 32.9223 16.8231 32.9223 16.5333C32.9223 16.2435 32.8072 15.9656 32.6023 15.7607C32.3974 15.5558 32.1195 15.4407 31.8297 15.4407Z" fill="#B8C6D4"/>
</svg>
