<svg width="18" height="16" viewBox="0 0 18 16" fill="none" xmlns="http://www.w3.org/2000/svg">
<path d="M15.4 0H7.4C6.76348 0 6.15303 0.252856 5.70294 0.702944C5.25286 1.15303 5 1.76348 5 2.4V8C5 8.63652 5.25286 9.24697 5.70294 9.69706C6.15303 10.1471 6.76348 10.4 7.4 10.4H15.4C16.0365 10.4 16.647 10.1471 17.0971 9.69706C17.5471 9.24697 17.8 8.63652 17.8 8V2.4C17.8 1.76348 17.5471 1.15303 17.0971 0.702944C16.647 0.252856 16.0365 0 15.4 0ZM16.2 8C16.2 8.21217 16.1157 8.41566 15.9657 8.56569C15.8157 8.71571 15.6122 8.8 15.4 8.8H7.4C7.18783 8.8 6.98434 8.71571 6.83431 8.56569C6.68429 8.41566 6.6 8.21217 6.6 8V2.4C6.6 2.18783 6.68429 1.98434 6.83431 1.83431C6.98434 1.68429 7.18783 1.6 7.4 1.6H15.4C15.6122 1.6 15.8157 1.68429 15.9657 1.83431C16.1157 1.98434 16.2 2.18783 16.2 2.4V8ZM13.4 4.8C13.1038 4.801 12.8186 4.91223 12.6 5.112C12.428 4.95564 12.2142 4.85261 11.9848 4.81544C11.7553 4.77827 11.5199 4.80855 11.3074 4.9026C11.0948 4.99666 10.9141 5.15044 10.7872 5.34525C10.6604 5.54007 10.5929 5.76753 10.5929 6C10.5929 6.23247 10.6604 6.45993 10.7872 6.65475C10.9141 6.84956 11.0948 7.00334 11.3074 7.0974C11.5199 7.19145 11.7553 7.22173 11.9848 7.18456C12.2142 7.14739 12.428 7.04436 12.6 6.888C12.7445 7.0193 12.9188 7.11338 13.1078 7.16206C13.2969 7.21075 13.495 7.21258 13.6849 7.16739C13.8748 7.12219 14.0508 7.03135 14.1977 6.90274C14.3446 6.77412 14.4578 6.61161 14.5277 6.42932C14.5975 6.24702 14.6218 6.05043 14.5985 5.85661C14.5752 5.66279 14.5049 5.47758 14.3938 5.31706C14.2827 5.15653 14.1341 5.02554 13.961 4.93544C13.7878 4.84533 13.5952 4.79884 13.4 4.8ZM12.2 12C11.9878 12 11.7843 12.0843 11.6343 12.2343C11.4843 12.3843 11.4 12.5878 11.4 12.8V13.6C11.4 13.8122 11.3157 14.0157 11.1657 14.1657C11.0157 14.3157 10.8122 14.4 10.6 14.4H2.6C2.38783 14.4 2.18434 14.3157 2.03431 14.1657C1.88429 14.0157 1.8 13.8122 1.8 13.6V10.4H2.6C2.81217 10.4 3.01566 10.3157 3.16569 10.1657C3.31571 10.0157 3.4 9.81217 3.4 9.6C3.4 9.38783 3.31571 9.18434 3.16569 9.03432C3.01566 8.88429 2.81217 8.8 2.6 8.8H1.8V8C1.8 7.78783 1.88429 7.58434 2.03431 7.43431C2.18434 7.28429 2.38783 7.2 2.6 7.2C2.81217 7.2 3.01566 7.11571 3.16569 6.96569C3.31571 6.81566 3.4 6.61217 3.4 6.4C3.4 6.18783 3.31571 5.98434 3.16569 5.83431C3.01566 5.68429 2.81217 5.6 2.6 5.6C1.96348 5.6 1.35303 5.85286 0.902944 6.30294C0.452856 6.75303 0.2 7.36348 0.2 8V13.6C0.2 14.2365 0.452856 14.847 0.902944 15.2971C1.35303 15.7471 1.96348 16 2.6 16H10.6C11.2365 16 11.847 15.7471 12.2971 15.2971C12.7471 14.847 13 14.2365 13 13.6V12.8C13 12.5878 12.9157 12.3843 12.7657 12.2343C12.6157 12.0843 12.4122 12 12.2 12ZM4.2 12.8H5C5.21217 12.8 5.41566 12.7157 5.56569 12.5657C5.71571 12.4157 5.8 12.2122 5.8 12C5.8 11.7878 5.71571 11.5843 5.56569 11.4343C5.41566 11.2843 5.21217 11.2 5 11.2H4.2C3.98783 11.2 3.78434 11.2843 3.63431 11.4343C3.48429 11.5843 3.4 11.7878 3.4 12C3.4 12.2122 3.48429 12.4157 3.63431 12.5657C3.78434 12.7157 3.98783 12.8 4.2 12.8Z" fill="#061726"/>
</svg>
