<svg width="20" height="22" viewBox="0 0 20 22" fill="none" xmlns="http://www.w3.org/2000/svg">
<path d="M12.587 13.0948C14.8728 13.0948 16.7258 11.1797 16.7258 8.81735C16.7258 6.455 14.8728 4.53993 12.587 4.53993C10.3012 4.53993 8.44824 6.455 8.44824 8.81735C8.44824 11.1797 10.3012 13.0948 12.587 13.0948Z" stroke="#061726" stroke-width="1.5" stroke-miterlimit="10" stroke-linecap="round" stroke-linejoin="round"/>
<path d="M12.5868 13.0948C8.97131 13.0948 6.04297 16.1212 6.04297 19.8578" stroke="#061726" stroke-width="1.5" stroke-miterlimit="10" stroke-linecap="round" stroke-linejoin="round"/>
<path d="M6.80869 8.76818C4.79479 8.69717 3.18262 6.98183 3.18262 4.88409C3.18262 2.78635 4.86879 1 6.94612 1C8.47901 1 9.79518 1.94507 10.3766 3.30533" stroke="#061726" stroke-width="1.5" stroke-miterlimit="10" stroke-linecap="round" stroke-linejoin="round"/>
<path d="M6.94655 8.77365C3.66405 8.77365 1 11.5215 1 14.9194" stroke="#061726" stroke-width="1.5" stroke-miterlimit="10" stroke-linecap="round" stroke-linejoin="round"/>
<path d="M16.1963 20.5516V14.6134" stroke="#061726" stroke-width="1.5" stroke-miterlimit="10" stroke-linecap="round" stroke-linejoin="round"/>
<path d="M19.0666 17.5798H13.3262" stroke="#061726" stroke-width="1.5" stroke-miterlimit="10" stroke-linecap="round" stroke-linejoin="round"/>
</svg>
