<svg width="16" height="15" fill="none" xmlns="http://www.w3.org/2000/svg"><path d="M4.48.825c-1.027 0-2.05.401-2.825 1.213-1.551 1.623-1.55 4.228 0 5.852l6.008 6.31a.521.521 0 00.757 0c2.006-2.1 4.01-4.202 6.015-6.302 1.552-1.623 1.552-4.229 0-5.852a3.894 3.894 0 00-5.657 0l-.733.765-.732-.774A3.903 3.903 0 004.48.825zm0 1.017c.746 0 1.493.31 2.076.92L7.67 3.926a.52.52 0 00.757 0L9.535 2.77c1.166-1.22 2.986-1.22 4.152 0 1.165 1.22 1.165 3.193 0 4.412-1.88 1.967-3.763 3.928-5.641 5.894L2.405 7.174c-1.165-1.221-1.166-3.193 0-4.412.582-.61 1.329-.92 2.075-.92z" fill="#000"/></svg>